<svg viewBox="0 0 565 400" xmlns="http://www.w3.org/2000/svg"><g><g><g><g><g><line x1="29.4375" y1="377" x2="24.4375" y2="377" style="visibility: inherit;" fill="rgb(0, 0, 0)" stroke="rgb(204, 204, 204)" stroke-width="1px"></line><line x1="29.4375" y1="323.14285714285717" x2="24.4375" y2="323.14285714285717" style="visibility: inherit;" fill="rgb(0, 0, 0)" stroke="rgb(204, 204, 204)" stroke-width="1px"></line><line x1="29.4375" y1="269.2857142857143" x2="24.4375" y2="269.2857142857143" style="visibility: inherit;" fill="rgb(0, 0, 0)" stroke="rgb(204, 204, 204)" stroke-width="1px"></line><line x1="29.4375" y1="215.42857142857144" x2="24.4375" y2="215.42857142857144" style="visibility: inherit;" fill="rgb(0, 0, 0)" stroke="rgb(204, 204, 204)" stroke-width="1px"></line><line x1="29.4375" y1="161.57142857142858" x2="24.4375" y2="161.57142857142858" style="visibility: inherit;" fill="rgb(0, 0, 0)" stroke="rgb(204, 204, 204)" stroke-width="1px"></line><line x1="29.4375" y1="107.71428571428572" x2="24.4375" y2="107.71428571428572" style="visibility: inherit;" fill="rgb(0, 0, 0)" stroke="rgb(204, 204, 204)" stroke-width="1px"></line><line x1="29.4375" y1="53.85714285714289" x2="24.4375" y2="53.85714285714289" style="visibility: inherit;" fill="rgb(0, 0, 0)" stroke="rgb(204, 204, 204)" stroke-width="1px"></line><line x1="29.4375" y1="0" x2="24.4375" y2="0" style="visibility: inherit;" fill="rgb(0, 0, 0)" stroke="rgb(204, 204, 204)" stroke-width="1px"></line></g><g transform="translate(19.4375, 0)"><text x="0" y="377" dx="0em" dy="0.3em" style="text-anchor: end; visibility: hidden; font-family: &quot;Helvetica Neue&quot;, sans-serif; font-size: 12px; font-weight: 200;" fill="rgb(50, 49, 63)" stroke="none" stroke-width="1px">-5</text><text x="0" y="323.14285714285717" dx="0em" dy="0.3em" style="text-anchor: end; visibility: inherit; font-family: &quot;Helvetica Neue&quot;, sans-serif; font-size: 12px; font-weight: 200;" fill="rgb(50, 49, 63)" stroke="none" stroke-width="1px">0</text><text x="0" y="269.2857142857143" dx="0em" dy="0.3em" style="text-anchor: end; visibility: inherit; font-family: &quot;Helvetica Neue&quot;, sans-serif; font-size: 12px; font-weight: 200;" fill="rgb(50, 49, 63)" stroke="none" stroke-width="1px">5</text><text x="0" y="215.42857142857144" dx="0em" dy="0.3em" style="text-anchor: end; visibility: inherit; font-family: &quot;Helvetica Neue&quot;, sans-serif; font-size: 12px; font-weight: 200;" fill="rgb(50, 49, 63)" stroke="none" stroke-width="1px">10</text><text x="0" y="161.57142857142858" dx="0em" dy="0.3em" style="text-anchor: end; visibility: inherit; font-family: &quot;Helvetica Neue&quot;, sans-serif; font-size: 12px; font-weight: 200;" fill="rgb(50, 49, 63)" stroke="none" stroke-width="1px">15</text><text x="0" y="107.71428571428572" dx="0em" dy="0.3em" style="text-anchor: end; visibility: inherit; font-family: &quot;Helvetica Neue&quot;, sans-serif; font-size: 12px; font-weight: 200;" fill="rgb(50, 49, 63)" stroke="none" stroke-width="1px">20</text><text x="0" y="53.85714285714289" dx="0em" dy="0.3em" style="text-anchor: end; visibility: inherit; font-family: &quot;Helvetica Neue&quot;, sans-serif; font-size: 12px; font-weight: 200;" fill="rgb(50, 49, 63)" stroke="none" stroke-width="1px">25</text><text x="0" y="0" dx="0em" dy="0.3em" style="text-anchor: end; visibility: hidden; font-family: &quot;Helvetica Neue&quot;, sans-serif; font-size: 12px; font-weight: 200;" fill="rgb(50, 49, 63)" stroke="none" stroke-width="1px">30</text></g><line x1="29.4375" y1="0" x2="29.4375" y2="377" fill="rgb(0, 0, 0)" stroke="rgb(204, 204, 204)" stroke-width="1px"></line></g></g><g transform="translate(29, 0)" clip-path="url(#clip_0)"><clipPath id="clip_0"><rect width="535" height="377"></rect></clipPath><g><g><g><line x1="0" y1="0" x2="0" y2="377" fill="rgb(0, 0, 0)" stroke="rgb(60, 60, 60)" stroke-width="1px" opacity="0.25"></line><line x1="59.50694444444444" y1="0" x2="59.50694444444444" y2="377" fill="rgb(0, 0, 0)" stroke="rgb(60, 60, 60)" stroke-width="1px" opacity="0.25"></line><line x1="119.01388888888889" y1="0" x2="119.01388888888889" y2="377" fill="rgb(0, 0, 0)" stroke="rgb(60, 60, 60)" stroke-width="1px" opacity="0.25"></line><line x1="178.52083333333331" y1="0" x2="178.52083333333331" y2="377" fill="rgb(0, 0, 0)" stroke="rgb(60, 60, 60)" stroke-width="1px" opacity="0.25"></line><line x1="238.02777777777777" y1="0" x2="238.02777777777777" y2="377" fill="rgb(0, 0, 0)" stroke="rgb(60, 60, 60)" stroke-width="1px" opacity="0.25"></line><line x1="297.53472222222223" y1="0" x2="297.53472222222223" y2="377" fill="rgb(0, 0, 0)" stroke="rgb(60, 60, 60)" stroke-width="1px" opacity="0.25"></line><line x1="357.04166666666663" y1="0" x2="357.04166666666663" y2="377" fill="rgb(0, 0, 0)" stroke="rgb(60, 60, 60)" stroke-width="1px" opacity="0.25"></line><line x1="416.54861111111114" y1="0" x2="416.54861111111114" y2="377" fill="rgb(0, 0, 0)" stroke="rgb(60, 60, 60)" stroke-width="1px" opacity="0.25"></line><line x1="476.05555555555554" y1="0" x2="476.05555555555554" y2="377" fill="rgb(0, 0, 0)" stroke="rgb(60, 60, 60)" stroke-width="1px" opacity="0.25"></line><line x1="535.5625" y1="0" x2="535.5625" y2="377" fill="rgb(0, 0, 0)" stroke="rgb(60, 60, 60)" stroke-width="1px" opacity="0.25"></line></g><g><line x1="0" y1="377" x2="535.5625" y2="377" fill="rgb(0, 0, 0)" stroke="rgb(60, 60, 60)" stroke-width="1px" opacity="0.25"></line><line x1="0" y1="323.14285714285717" x2="535.5625" y2="323.14285714285717" fill="rgb(0, 0, 0)" stroke="rgb(60, 60, 60)" stroke-width="1px" opacity="0.25"></line><line x1="0" y1="269.2857142857143" x2="535.5625" y2="269.2857142857143" fill="rgb(0, 0, 0)" stroke="rgb(60, 60, 60)" stroke-width="1px" opacity="0.25"></line><line x1="0" y1="215.42857142857144" x2="535.5625" y2="215.42857142857144" fill="rgb(0, 0, 0)" stroke="rgb(60, 60, 60)" stroke-width="1px" opacity="0.25"></line><line x1="0" y1="161.57142857142858" x2="535.5625" y2="161.57142857142858" fill="rgb(0, 0, 0)" stroke="rgb(60, 60, 60)" stroke-width="1px" opacity="0.25"></line><line x1="0" y1="107.71428571428572" x2="535.5625" y2="107.71428571428572" fill="rgb(0, 0, 0)" stroke="rgb(60, 60, 60)" stroke-width="1px" opacity="0.25"></line><line x1="0" y1="53.85714285714289" x2="535.5625" y2="53.85714285714289" fill="rgb(0, 0, 0)" stroke="rgb(60, 60, 60)" stroke-width="1px" opacity="0.25"></line><line x1="0" y1="0" x2="535.5625" y2="0" fill="rgb(0, 0, 0)" stroke="rgb(60, 60, 60)" stroke-width="1px" opacity="0.25"></line></g></g></g><g><g><line x1="0" y1="323.14285714285717" x2="535.5625" y2="323.14285714285717" fill="rgb(0, 0, 0)" stroke="rgb(153, 153, 153)" stroke-width="1.5px"></line></g></g><g><g><line x1="59.50694444444444" y1="0" x2="59.50694444444444" y2="377" fill="rgb(0, 0, 0)" stroke="rgb(153, 153, 153)" stroke-width="1.5px"></line></g></g><g><g><g><g><g><path stroke="rgb(0, 119, 187)" stroke-width="2px" d="M59.50694444444444,-57.422088623046875L62.48229166666667,75.04568317958285L65.45763888888888,71.90024310520715L68.4329861111111,70.67176262991768L71.40833333333333,144.89602083478655L74.38368055555556,148.6690244947161L77.35902777777777,154.15736040387836L80.334375,88.76223934718541L83.30972222222222,69.10443562098914L86.28506944444445,-18.75214478628976L89.26041666666666,146.23398491995675L92.23576388888888,106.58906375340052L95.21111111111111,110.82140960693357L98.18645833333332,153.35604885646276L101.16180555555556,77.33468982151578L104.13715277777779,85.85920818873814L107.11250000000001,87.27376354762487L110.08784722222222,83.88051125662668L113.06319444444445,-42.625344848632835L116.03854166666667,85.4608842577253L119.01388888888889,178.9246731894357L121.98923611111111,122.089633669172L124.96458333333334,97.31948569161551L127.93993055555556,186.11088848114014L130.91527777777776,133.6384595598493L133.890625,49.537152590070434L136.8659722222222,97.01098393031532L139.84131944444445,117.68051975795203L142.81666666666666,88.63017692565916L145.79201388888887,57.207969992501376L148.76736111111111,148.26225662231445L151.74270833333333,179.10722462790352L154.71805555555554,84.13218590872629L157.69340277777778,69.77865660531182L160.66875,169.61053330557687L163.64409722222223,109.89029557364324L166.61944444444444,54.73001218523302L169.59479166666665,140.78324612208777L172.5701388888889,174.30223162514824L175.5454861111111,224.59482934134346L178.52083333333331,183.60138402666365L181.49618055555555,113.39183987208776L184.47152777777777,167.66128744397844L187.44687499999998,221.40326603480747L190.42222222222222,211.54950487954278L193.39756944444443,225.80570286342075L196.37291666666664,201.93474219185967L199.34826388888888,208.14218962533135L202.32361111111112,191.61139722551619L205.29895833333336,200.24415623801093L208.27430555555557,164.31467200687953L211.24965277777778,183.86829269954134L214.22500000000002,195.6942277908325L217.20034722222223,199.84833878108432L220.17569444444445,206.55098947797504L223.15104166666669,179.7237042563302L226.1263888888889,227.38372347695488L229.1017361111111,234.7501994541713L232.07708333333335,197.54031786237445L235.05243055555556,252.15610057285855L238.02777777777777,196.00238028935024L241.003125,212.6645776748657L243.97847222222222,231.15078966958183L246.95381944444446,228.40679634639196L249.92916666666667,250.37050486973354L252.90451388888889,230.8396684374128L255.87986111111113,223.86745877947126L258.85520833333334,232.39378509521484L261.8305555555555,238.71115271704537L264.80590277777776,235.02902415139334L267.78125,212.0261253084455L270.75659722222224,233.41441312517438L273.7319444444444,235.61879544939313L276.7072916666667,218.9748213631766L279.6826388888889,236.93374928065708L282.65798611111114,245.6115529196603L285.6333333333333,250.3498572758266L288.60868055555557,238.38134078979493L291.58402777777775,246.3766541344779L294.55937500000005,234.6738033567156L297.53472222222223,254.89226630074637L300.51006944444447,246.81361782891412L303.48541666666665,234.36118234906877L306.4607638888889,246.46867460523333L309.4361111111111,258.7010385785784L312.41145833333337,249.59100170135497L315.38680555555555,146.7589885166713L318.3621527777778,205.58957176208497L321.3375,263.23597440719607L324.3128472222222,234.18688994816372L327.28819444444446,239.7965227672032L330.2635416666667,272.0212739399501L333.2388888888889,244.26763595853532L336.2142361111111,258.9721281324114L339.1895833333333,245.46456465039935L342.16493055555554,255.4699983051845L345.1402777777778,223.00509815216066L348.115625,250.90706495557515L351.0909722222222,267.6034130505153L354.06631944444445,255.7317245347159L357.04166666666663,241.71394976207188L360.0170138888889,255.54220838546752L362.9923611111111,260.5527219908578L365.96770833333335,251.6653812272208L368.94305555555553,238.85626113074164L371.91840277777777,263.91257859638756L374.89374999999995,253.10173469270978L377.86909722222225,251.70277288981845L380.84444444444443,243.97666924340385L383.8197916666667,258.23307267597744L386.79513888888886,264.06170866830007L389.7704861111111,263.5147888319833L392.7458333333333,263.7773574011667L395.7211805555556,257.1899069241115L398.69652777777776,247.783058316367L401.671875,251.12411636625018L404.64722222222224,265.8255576269967L407.6225694444444,274.9522872107369L410.5979166666667,265.66776275634766L413.5732638888889,262.4798102106367L416.54861111111114,265.54995333807807L419.5239583333333,268.3598700114659L422.49930555555557,260.4421854564122L425.47465277777775,236.64322428022112L428.45000000000005,267.21309134619577L431.42534722222223,271.8042225292751L434.40069444444447,263.6893072264535L437.37604166666665,258.51260617119925L440.3513888888889,251.36255498613627L443.3267361111111,267.7704787935529L446.30208333333337,272.6010552951268L449.27743055555555,264.05581742695404L452.2527777777778,273.69099144254415L455.228125,262.8785347666059L458.2034722222222,256.9647248813084L461.17881944444446,261.07369879313876L464.1541666666667,263.6358135223389L467.1295138888889,282.61376440184455L470.1048611111111,277.4774519920349L473.0802083333333,277.23044616154266L476.05555555555554,258.0474805968148L479.0309027777778,267.80568756375993L482.00625,271.5020639964512L484.9815972222222,281.4622552803585L487.95694444444445,255.98484246390205L490.93229166666663,277.04413501194546L493.9076388888889,279.68714002881734L496.8829861111111,281.22517775808063L499.85833333333335,291.6864763872964L502.83368055555553,288.35152786799836" style="fill: none;" fill="none"></path></g><g><path stroke="rgb(255, 112, 67)" stroke-width="2px" d="M62.48229166666667,-60.90678612845289L65.45763888888888,6.37630571637834L68.4329861111111,46.92908412388391L71.40833333333333,80.25343780517579L74.38368055555556,100.33347969055177L77.35902777777777,115.76834711347306L80.334375,125.34809107099261L83.30972222222222,140.3868944985526L86.28506944444445,152.14644911629813L89.26041666666666,163.44516176496234L92.23576388888888,168.6219141823905L95.21111111111111,172.64966395241873L98.18645833333332,186.42115710122243L101.16180555555556,191.77442076546805L104.13715277777779,197.42389008658273L107.11250000000001,202.36165430886405L110.08784722222222,206.87152026040215L113.06319444444445,211.26509197780064L116.03854166666667,214.08330364227294L119.01388888888889,217.94463996887208L121.98923611111111,220.8320981161935L124.96458333333334,220.99113595145087L127.93993055555556,227.549438394819L130.91527777777776,227.0618572780064L133.890625,229.97807824271064L136.8659722222222,232.87429877689908L139.84131944444445,236.00992867606027L142.81666666666666,236.51614398956298L145.79201388888887,238.7983194623675L148.76736111111111,240.39223666872297L151.74270833333333,244.67377207619805L154.71805555555554,243.45665804999214L157.69340277777778,246.4031518799918L160.66875,248.72038717269896L163.64409722222223,251.67651654652187L166.61944444444444,249.30266986574446L169.59479166666665,253.5105775969369L172.5701388888889,253.73294499261038L175.5454861111111,254.2846261024475L178.52083333333331,255.67468684060233L181.49618055555555,257.4273183005197L184.47152777777777,255.40281658172609L187.44687499999998,259.2824892044067L190.42222222222222,260.5507856369019L193.39756944444443,262.7721277509417L196.37291666666664,261.6427865437099L199.34826388888888,264.1944439343044L202.32361111111112,264.2513121332441L205.29895833333336,265.12044229507444L208.27430555555557,261.77816182545257L211.24965277777778,266.3401244299753L214.22500000000002,267.8259139878409L217.20034722222223,269.77111251013616L220.17569444444445,269.3321148736136L223.15104166666669,268.82079416002546L226.1263888888889,270.42808094024656L229.1017361111111,270.9674299921308L232.07708333333335,273.6549300602504L235.05243055555556,272.35674084254674L238.02777777777777,274.3264185769217L241.003125,274.1237948008946L243.97847222222222,275.8076471737453L246.95381944444446,274.92370416096276L249.92916666666667,275.41822944368636L252.90451388888889,276.00974191938127L255.87986111111113,276.5874893324716L258.85520833333334,277.4175791059222L261.8305555555555,278.8375531741551L264.80590277777776,278.72071450097224L267.78125,279.78172860826766L270.75659722222224,279.6075954301017L273.7319444444444,280.6379771368844L276.7072916666667,280.4693910734994L279.6826388888889,281.1150932107653L282.65798611111114,281.5386334010533L285.6333333333333,282.31955673354014L288.60868055555557,283.03870677948L291.58402777777775,282.72145803996494L294.55937500000005,283.0936206477029L297.53472222222223,283.0995966366359L300.51006944444447,284.0788087776729L303.48541666666665,284.8628318173545L306.4607638888889,284.56406575611663L309.4361111111111,285.2165194511414L312.41145833333337,286.18224902153014L315.38680555555555,285.4067161491939L318.3621527777778,285.43979595729286L321.3375,286.06572879382543L324.3128472222222,286.9067073481424L327.28819444444446,287.13570303235736L330.2635416666667,287.8045027392251L333.2388888888889,286.9753451892308L336.2142361111111,288.1427021094731L339.1895833333333,289.0154815537589L342.16493055555554,289.38946751867024L345.1402777777778,288.9802650792258L348.115625,288.2235050814493L351.0909722222222,289.77059282575334L354.06631944444445,289.95024743761337L357.04166666666663,289.7016545159476L360.0170138888889,290.86195684160504L362.9923611111111,290.9812352180481L365.96770833333335,291.25929718698774L368.94305555555553,291.1165796824864L371.91840277777777,290.6555707863399L374.89374999999995,291.2097480978284L377.86909722222225,292.6787704740252L380.84444444444443,291.96957698549545L383.8197916666667,293.11603206907L386.79513888888886,293.5956854343414L389.7704861111111,292.6127931935447L392.7458333333333,293.5295078413827L395.7211805555556,293.1847957474845L398.69652777777776,293.5571997574398L401.671875,294.45467156682696L404.64722222222224,293.69846114431107L407.6225694444444,294.8427487441472L410.5979166666667,294.85149829047066L413.5732638888889,294.8341866697584L416.54861111111114,295.3472845145634L419.5239583333333,295.2036450590406L422.49930555555557,295.72317344801763L425.47465277777775,295.88882673127307L428.45000000000005,296.2797724860055L431.42534722222223,295.29183391162326L434.40069444444447,296.7133770942688L437.37604166666665,296.1766089916229L440.3513888888889,295.7197938169752L443.3267361111111,296.67255187034607L446.30208333333337,297.5526581287384L449.27743055555555,297.3437450545175L452.2527777777778,297.0398890018463L455.228125,298.2942739895412L458.2034722222222,297.2742366245815L461.17881944444446,297.9604994705745L464.1541666666667,298.3185477529253L467.1295138888889,298.6909363542284L470.1048611111111,299.0616839340755L473.0802083333333,299.2380462305887L476.05555555555554,298.97941714014325L479.0309027777778,300.1621750082288L482.00625,299.5753981249673L484.9815972222222,299.2352546964373L487.95694444444445,300.29203656060355L490.93229166666663,300.2885850225176L493.9076388888889,300.2239765439715L496.8829861111111,301.1750062601907L499.85833333333335,300.7481917313167L502.83368055555553,300.99381591933115" style="fill: none;" fill="none"></path></g></g></g></g></g></g><g transform="translate(29, 377)" clip-path="url(#clip_1)"><clipPath id="clip_1"><rect width="535" height="23"></rect></clipPath><g><g><line x1="0" y1="0" x2="0" y2="5" style="visibility: inherit;" fill="rgb(0, 0, 0)" stroke="rgb(204, 204, 204)" stroke-width="1px"></line><line x1="59.50694444444444" y1="0" x2="59.50694444444444" y2="5" style="visibility: inherit;" fill="rgb(0, 0, 0)" stroke="rgb(204, 204, 204)" stroke-width="1px"></line><line x1="119.01388888888889" y1="0" x2="119.01388888888889" y2="5" style="visibility: inherit;" fill="rgb(0, 0, 0)" stroke="rgb(204, 204, 204)" stroke-width="1px"></line><line x1="178.52083333333331" y1="0" x2="178.52083333333331" y2="5" style="visibility: inherit;" fill="rgb(0, 0, 0)" stroke="rgb(204, 204, 204)" stroke-width="1px"></line><line x1="238.02777777777777" y1="0" x2="238.02777777777777" y2="5" style="visibility: inherit;" fill="rgb(0, 0, 0)" stroke="rgb(204, 204, 204)" stroke-width="1px"></line><line x1="297.53472222222223" y1="0" x2="297.53472222222223" y2="5" style="visibility: inherit;" fill="rgb(0, 0, 0)" stroke="rgb(204, 204, 204)" stroke-width="1px"></line><line x1="357.04166666666663" y1="0" x2="357.04166666666663" y2="5" style="visibility: inherit;" fill="rgb(0, 0, 0)" stroke="rgb(204, 204, 204)" stroke-width="1px"></line><line x1="416.54861111111114" y1="0" x2="416.54861111111114" y2="5" style="visibility: inherit;" fill="rgb(0, 0, 0)" stroke="rgb(204, 204, 204)" stroke-width="1px"></line><line x1="476.05555555555554" y1="0" x2="476.05555555555554" y2="5" style="visibility: inherit;" fill="rgb(0, 0, 0)" stroke="rgb(204, 204, 204)" stroke-width="1px"></line><line x1="535.5625" y1="0" x2="535.5625" y2="5" style="visibility: inherit;" fill="rgb(0, 0, 0)" stroke="rgb(204, 204, 204)" stroke-width="1px"></line></g><g transform="translate(0, 8)"><text x="0" y="0" dx="0em" dy="0.95em" style="text-anchor: middle; visibility: hidden; font-family: &quot;Helvetica Neue&quot;, sans-serif; font-size: 12px; font-weight: 200;" fill="rgb(50, 49, 63)" stroke="none" stroke-width="1px">-20</text><text x="59.50694444444444" y="0" dx="0em" dy="0.95em" style="text-anchor: middle; visibility: inherit; font-family: &quot;Helvetica Neue&quot;, sans-serif; font-size: 12px; font-weight: 200;" fill="rgb(50, 49, 63)" stroke="none" stroke-width="1px">0</text><text x="119.01388888888889" y="0" dx="0em" dy="0.95em" style="text-anchor: middle; visibility: inherit; font-family: &quot;Helvetica Neue&quot;, sans-serif; font-size: 12px; font-weight: 200;" fill="rgb(50, 49, 63)" stroke="none" stroke-width="1px">20</text><text x="178.52083333333331" y="0" dx="0em" dy="0.95em" style="text-anchor: middle; visibility: inherit; font-family: &quot;Helvetica Neue&quot;, sans-serif; font-size: 12px; font-weight: 200;" fill="rgb(50, 49, 63)" stroke="none" stroke-width="1px">40</text><text x="238.02777777777777" y="0" dx="0em" dy="0.95em" style="text-anchor: middle; visibility: inherit; font-family: &quot;Helvetica Neue&quot;, sans-serif; font-size: 12px; font-weight: 200;" fill="rgb(50, 49, 63)" stroke="none" stroke-width="1px">60</text><text x="297.53472222222223" y="0" dx="0em" dy="0.95em" style="text-anchor: middle; visibility: inherit; font-family: &quot;Helvetica Neue&quot;, sans-serif; font-size: 12px; font-weight: 200;" fill="rgb(50, 49, 63)" stroke="none" stroke-width="1px">80</text><text x="357.04166666666663" y="0" dx="0em" dy="0.95em" style="text-anchor: middle; visibility: inherit; font-family: &quot;Helvetica Neue&quot;, sans-serif; font-size: 12px; font-weight: 200;" fill="rgb(50, 49, 63)" stroke="none" stroke-width="1px">100</text><text x="416.54861111111114" y="0" dx="0em" dy="0.95em" style="text-anchor: middle; visibility: inherit; font-family: &quot;Helvetica Neue&quot;, sans-serif; font-size: 12px; font-weight: 200;" fill="rgb(50, 49, 63)" stroke="none" stroke-width="1px">120</text><text x="476.05555555555554" y="0" dx="0em" dy="0.95em" style="text-anchor: middle; visibility: inherit; font-family: &quot;Helvetica Neue&quot;, sans-serif; font-size: 12px; font-weight: 200;" fill="rgb(50, 49, 63)" stroke="none" stroke-width="1px">140</text><text x="535.5625" y="0" dx="0em" dy="0.95em" style="text-anchor: middle; visibility: hidden; font-family: &quot;Helvetica Neue&quot;, sans-serif; font-size: 12px; font-weight: 200;" fill="rgb(50, 49, 63)" stroke="none" stroke-width="1px">160</text></g><line x1="0" y1="0" x2="535.5625" y2="0" fill="rgb(0, 0, 0)" stroke="rgb(204, 204, 204)" stroke-width="1px"></line></g></g></g></g></svg>